<mxfile host="app.diagrams.net" agent="Mozilla/5.0 (X11; Linux x86_64) AppleWebKit/537.36 (KHTML, like Gecko) Chrome/127.0.0.0 Safari/537.36" version="24.7.7">
  <diagram name="Page-1" id="zaLNOLi-pKK7LFCeiJAf">
    <mxGraphModel dx="1255" dy="543" grid="1" gridSize="10" guides="1" tooltips="1" connect="1" arrows="1" fold="1" page="1" pageScale="1" pageWidth="850" pageHeight="1100" math="0" shadow="0">
      <root>
        <mxCell id="0" />
        <mxCell id="1" parent="0" />
        <mxCell id="kGcX3QPVi7lhu30uPLip-2" value="&lt;font style=&quot;font-size: 30px;&quot;&gt;HeapManager.h&lt;/font&gt;" style="rounded=0;whiteSpace=wrap;html=1;fillColor=#1ba1e2;fontColor=#ffffff;strokeColor=#006EAF;" vertex="1" parent="1">
          <mxGeometry x="80" y="430" width="470" height="60" as="geometry" />
        </mxCell>
        <mxCell id="kGcX3QPVi7lhu30uPLip-3" value="&lt;font style=&quot;font-size: 30px;&quot;&gt;HeapTests.h&lt;/font&gt;" style="rounded=0;whiteSpace=wrap;html=1;fillColor=#60a917;fontColor=#ffffff;strokeColor=#2D7600;" vertex="1" parent="1">
          <mxGeometry x="80" y="260" width="1010" height="60" as="geometry" />
        </mxCell>
        <mxCell id="kGcX3QPVi7lhu30uPLip-5" style="edgeStyle=orthogonalEdgeStyle;rounded=0;orthogonalLoop=1;jettySize=auto;html=1;entryX=0;entryY=0.5;entryDx=0;entryDy=0;" edge="1" parent="1" source="kGcX3QPVi7lhu30uPLip-2" target="kGcX3QPVi7lhu30uPLip-29">
          <mxGeometry relative="1" as="geometry">
            <mxPoint x="610" y="460" as="targetPoint" />
          </mxGeometry>
        </mxCell>
        <mxCell id="kGcX3QPVi7lhu30uPLip-7" value="Malloc" style="ellipse;whiteSpace=wrap;html=1;fillColor=#1ba1e2;strokeColor=#006EAF;fontColor=#ffffff;" vertex="1" parent="1">
          <mxGeometry x="90" y="490" width="90" height="60" as="geometry" />
        </mxCell>
        <mxCell id="kGcX3QPVi7lhu30uPLip-8" value="Free" style="ellipse;whiteSpace=wrap;html=1;fillColor=#1ba1e2;strokeColor=#006EAF;fontColor=#ffffff;" vertex="1" parent="1">
          <mxGeometry x="390" y="490" width="90" height="60" as="geometry" />
        </mxCell>
        <mxCell id="kGcX3QPVi7lhu30uPLip-9" value="Init" style="ellipse;whiteSpace=wrap;html=1;fillColor=#1ba1e2;strokeColor=#006EAF;fontColor=#ffffff;" vertex="1" parent="1">
          <mxGeometry x="610" y="560" width="60" height="50" as="geometry" />
        </mxCell>
        <mxCell id="kGcX3QPVi7lhu30uPLip-11" value="SetFreeNodeInfo" style="ellipse;whiteSpace=wrap;html=1;fillColor=#fff2cc;strokeColor=#d6b656;gradientColor=#ffd966;" vertex="1" parent="1">
          <mxGeometry x="197.5" y="690" width="102.5" height="60" as="geometry" />
        </mxCell>
        <mxCell id="kGcX3QPVi7lhu30uPLip-12" value="FirstFit" style="ellipse;whiteSpace=wrap;html=1;fillColor=#1ba1e2;strokeColor=#006EAF;fontColor=#ffffff;" vertex="1" parent="1">
          <mxGeometry x="750" y="560" width="60" height="50" as="geometry" />
        </mxCell>
        <mxCell id="kGcX3QPVi7lhu30uPLip-13" value="BestFit" style="ellipse;whiteSpace=wrap;html=1;fillColor=#1ba1e2;strokeColor=#006EAF;fontColor=#ffffff;" vertex="1" parent="1">
          <mxGeometry x="680" y="560" width="60" height="50" as="geometry" />
        </mxCell>
        <mxCell id="kGcX3QPVi7lhu30uPLip-14" value="HandleFreeBeforeHead" style="ellipse;whiteSpace=wrap;html=1;fillColor=#1ba1e2;strokeColor=#006EAF;fontColor=#ffffff;" vertex="1" parent="1">
          <mxGeometry x="988.67" y="490" width="131.33" height="80" as="geometry" />
        </mxCell>
        <mxCell id="kGcX3QPVi7lhu30uPLip-15" value="HandleFreeAfterTail" style="ellipse;whiteSpace=wrap;html=1;fillColor=#1ba1e2;strokeColor=#006EAF;fontColor=#ffffff;" vertex="1" parent="1">
          <mxGeometry x="610" y="490" width="200" height="70" as="geometry" />
        </mxCell>
        <mxCell id="kGcX3QPVi7lhu30uPLip-16" value="HandleFreeMiddle" style="ellipse;whiteSpace=wrap;html=1;fillColor=#1ba1e2;strokeColor=#006EAF;fontColor=#ffffff;" vertex="1" parent="1">
          <mxGeometry x="879.9999999999999" y="490" width="98.67" height="70" as="geometry" />
        </mxCell>
        <mxCell id="kGcX3QPVi7lhu30uPLip-17" value="splitFreeBlock" style="ellipse;whiteSpace=wrap;html=1;fillColor=#fff2cc;strokeColor=#d6b656;gradientColor=#ffd966;" vertex="1" parent="1">
          <mxGeometry x="630" y="690" width="90" height="60" as="geometry" />
        </mxCell>
        <mxCell id="kGcX3QPVi7lhu30uPLip-18" value="RemoveFreeBlock" style="ellipse;whiteSpace=wrap;html=1;fillColor=#fff2cc;strokeColor=#d6b656;gradientColor=#ffd966;" vertex="1" parent="1">
          <mxGeometry x="729.9999999999999" y="690" width="110" height="60" as="geometry" />
        </mxCell>
        <mxCell id="kGcX3QPVi7lhu30uPLip-19" value="sbrk" style="ellipse;whiteSpace=wrap;html=1;fillColor=#fff2cc;strokeColor=#d6b656;gradientColor=#ffd966;" vertex="1" parent="1">
          <mxGeometry x="340" y="690" width="60" height="50" as="geometry" />
        </mxCell>
        <mxCell id="kGcX3QPVi7lhu30uPLip-22" value="&lt;font style=&quot;font-size: 30px;&quot;&gt;HeapUtils.h&lt;/font&gt;" style="rounded=0;whiteSpace=wrap;html=1;fillColor=#fff2cc;strokeColor=#d6b656;gradientColor=#ffd966;" vertex="1" parent="1">
          <mxGeometry x="80" y="630" width="1010" height="60" as="geometry" />
        </mxCell>
        <mxCell id="kGcX3QPVi7lhu30uPLip-29" value="&lt;font style=&quot;font-size: 30px;&quot;&gt;HeapExtras.h&lt;/font&gt;" style="rounded=0;whiteSpace=wrap;html=1;fillColor=#1ba1e2;fontColor=#ffffff;strokeColor=#006EAF;" vertex="1" parent="1">
          <mxGeometry x="620" y="430" width="480" height="60" as="geometry" />
        </mxCell>
        <mxCell id="kGcX3QPVi7lhu30uPLip-30" value="RandomAllocateFreeTest" style="ellipse;whiteSpace=wrap;html=1;fillColor=#60a917;strokeColor=#2D7600;fontColor=#ffffff;" vertex="1" parent="1">
          <mxGeometry x="130" y="300" width="140" height="80" as="geometry" />
        </mxCell>
        <mxCell id="kGcX3QPVi7lhu30uPLip-31" value="PrintFreeListFromHead" style="ellipse;whiteSpace=wrap;html=1;fillColor=#60a917;strokeColor=#2D7600;fontColor=#ffffff;" vertex="1" parent="1">
          <mxGeometry x="740" y="310" width="130" height="80" as="geometry" />
        </mxCell>
        <mxCell id="kGcX3QPVi7lhu30uPLip-32" value="PrintFreeListFromTail" style="ellipse;whiteSpace=wrap;html=1;fillColor=#60a917;strokeColor=#2D7600;fontColor=#ffffff;" vertex="1" parent="1">
          <mxGeometry x="960" y="310" width="117.34" height="80" as="geometry" />
        </mxCell>
        <mxCell id="kGcX3QPVi7lhu30uPLip-33" value="PrintBordersState" style="ellipse;whiteSpace=wrap;html=1;fillColor=#60a917;strokeColor=#2D7600;fontColor=#ffffff;" vertex="1" parent="1">
          <mxGeometry x="350" y="300" width="100" height="80" as="geometry" />
        </mxCell>
        <mxCell id="kGcX3QPVi7lhu30uPLip-39" value="sbrkResize" style="ellipse;whiteSpace=wrap;html=1;fillColor=#fff2cc;strokeColor=#d6b656;gradientColor=#ffd966;" vertex="1" parent="1">
          <mxGeometry x="427.5" y="690" width="102.5" height="60" as="geometry" />
        </mxCell>
        <mxCell id="kGcX3QPVi7lhu30uPLip-40" value="AllocationCoreLoop" style="ellipse;whiteSpace=wrap;html=1;fillColor=#fff2cc;strokeColor=#d6b656;gradientColor=#ffd966;" vertex="1" parent="1">
          <mxGeometry x="890" y="690" width="120" height="60" as="geometry" />
        </mxCell>
        <mxCell id="kGcX3QPVi7lhu30uPLip-43" value="&lt;font style=&quot;font-size: 30px;&quot;&gt;Level 1&lt;/font&gt;" style="text;html=1;align=center;verticalAlign=middle;whiteSpace=wrap;rounded=0;" vertex="1" parent="1">
          <mxGeometry x="1150" y="260" width="110" height="60" as="geometry" />
        </mxCell>
        <mxCell id="kGcX3QPVi7lhu30uPLip-44" value="&lt;font style=&quot;font-size: 30px;&quot;&gt;Level 2&lt;/font&gt;" style="text;html=1;align=center;verticalAlign=middle;whiteSpace=wrap;rounded=0;" vertex="1" parent="1">
          <mxGeometry x="1150" y="430" width="110" height="60" as="geometry" />
        </mxCell>
        <mxCell id="kGcX3QPVi7lhu30uPLip-45" value="&lt;font style=&quot;font-size: 30px;&quot;&gt;Level 3&lt;/font&gt;" style="text;html=1;align=center;verticalAlign=middle;whiteSpace=wrap;rounded=0;" vertex="1" parent="1">
          <mxGeometry x="1150" y="630" width="110" height="60" as="geometry" />
        </mxCell>
        <mxCell id="kGcX3QPVi7lhu30uPLip-46" value="" style="endArrow=classic;html=1;rounded=0;exitX=0.22;exitY=0.967;exitDx=0;exitDy=0;exitPerimeter=0;entryX=0.47;entryY=0;entryDx=0;entryDy=0;entryPerimeter=0;" edge="1" parent="1" source="kGcX3QPVi7lhu30uPLip-3" target="kGcX3QPVi7lhu30uPLip-2">
          <mxGeometry width="50" height="50" relative="1" as="geometry">
            <mxPoint x="270" y="410" as="sourcePoint" />
            <mxPoint x="320" y="360" as="targetPoint" />
          </mxGeometry>
        </mxCell>
        <mxCell id="kGcX3QPVi7lhu30uPLip-47" value="" style="endArrow=classic;html=1;rounded=0;exitX=0.828;exitY=1.056;exitDx=0;exitDy=0;exitPerimeter=0;entryX=0.618;entryY=0;entryDx=0;entryDy=0;entryPerimeter=0;" edge="1" parent="1" source="kGcX3QPVi7lhu30uPLip-3" target="kGcX3QPVi7lhu30uPLip-29">
          <mxGeometry width="50" height="50" relative="1" as="geometry">
            <mxPoint x="620" y="440" as="sourcePoint" />
            <mxPoint x="670" y="390" as="targetPoint" />
          </mxGeometry>
        </mxCell>
        <mxCell id="kGcX3QPVi7lhu30uPLip-48" value="" style="endArrow=classic;html=1;rounded=0;exitX=0.464;exitY=1.067;exitDx=0;exitDy=0;exitPerimeter=0;entryX=0.216;entryY=-0.044;entryDx=0;entryDy=0;entryPerimeter=0;" edge="1" parent="1" source="kGcX3QPVi7lhu30uPLip-2" target="kGcX3QPVi7lhu30uPLip-22">
          <mxGeometry width="50" height="50" relative="1" as="geometry">
            <mxPoint x="620" y="440" as="sourcePoint" />
            <mxPoint x="670" y="390" as="targetPoint" />
          </mxGeometry>
        </mxCell>
        <mxCell id="kGcX3QPVi7lhu30uPLip-49" value="" style="endArrow=classic;html=1;rounded=0;exitX=0.471;exitY=1.067;exitDx=0;exitDy=0;exitPerimeter=0;entryX=0.758;entryY=0.022;entryDx=0;entryDy=0;entryPerimeter=0;" edge="1" parent="1" source="kGcX3QPVi7lhu30uPLip-29" target="kGcX3QPVi7lhu30uPLip-22">
          <mxGeometry width="50" height="50" relative="1" as="geometry">
            <mxPoint x="620" y="440" as="sourcePoint" />
            <mxPoint x="670" y="390" as="targetPoint" />
          </mxGeometry>
        </mxCell>
      </root>
    </mxGraphModel>
  </diagram>
</mxfile>
